<?xml version="1.0" encoding="utf-8"?>
<!-- Generator: Adobe Illustrator 26.1.0, SVG Export Plug-In . SVG Version: 6.00 Build 0)  -->
<svg version="1.1" id="Layer_1" xmlns="http://www.w3.org/2000/svg" xmlns:xlink="http://www.w3.org/1999/xlink" x="0px" y="0px"
	 viewBox="0 0 171 54" style="enable-background:new 0 0 171 54;" xml:space="preserve">
<style type="text/css">
	.st0{fill:#FFFFFF;}
</style>
<desc>Created with Sketch.</desc>
<g id="Home">
	<g id="Logo" transform="translate(-0.000300, -0.000200)">
		<path id="Fill-1" class="st0" d="M78.5,38H66.2c-0.1,0-0.2-0.1-0.2-0.2v-8.6c0-0.1,0.1-0.2,0.2-0.2h8.6c1,0,1.9-0.8,1.9-1.9
			c0-1.1-0.9-1.9-1.9-1.9h-8.6c-0.1,0-0.2-0.1-0.2-0.2v-9.1c0-0.1,0.1-0.2,0.2-0.2H78c1,0,1.9-0.8,1.9-1.9c0-1-0.9-1.9-1.9-1.9h-14
			c-1.1,0-2,1-2,2.1v25.8c0,1.1,1,2.1,2,2.1h14.5c1,0,1.9-0.8,1.9-1.9C80.4,38.9,79.5,38,78.5,38"/>
		<path id="Fill-3" class="st0" d="M95.2,21.1c-2.2,0-5.1,1-6.4,3.5v-1.3c0-1.1-0.9-2-2-2c-1.1,0-2,0.9-2,2V40c0,1.1,0.9,2,2,2
			c1.1,0,2-0.9,2-2v-9.2c0-4.3,2.9-5.9,5.7-5.9c2.8,0,4.5,2,4.5,5.4V40c0,1.1,0.9,2,2,2c1.1,0,2-0.9,2-2v-10
			C103,24.4,100.2,21.1,95.2,21.1"/>
		<path id="Fill-5" class="st0" d="M124.6,21.4c-1-0.3-2,0.2-2.4,1.3l-5.4,13.9c-0.1,0.2-0.4,0.2-0.4,0l-5.5-14
			c-0.4-1.1-1.4-1.6-2.4-1.3c-1.1,0.3-1.6,1.5-1.3,2.5l6.8,16.3c0.5,1.2,1.4,1.9,2.5,1.9h0.2c1.2,0,2-0.7,2.4-1.9l6.7-16.3
			C126.1,22.9,125.6,21.6,124.6,21.4"/>
		<path id="Fill-7" class="st0" d="M139.1,21.1c-5.8,0-10.6,4.1-10.6,10.5s4.8,10.7,10.6,10.7c5.8,0,10.7-4.2,10.7-10.7
			S144.9,21.1,139.1,21.1 M139.1,38.4c-3.7,0-6.7-2.7-6.7-6.8c0-4.1,3-6.7,6.7-6.7c3.7,0,6.7,2.6,6.7,6.7
			C145.8,35.7,142.7,38.4,139.1,38.4"/>
		<path id="Fill-9" class="st0" d="M169.8,21.4c-1-0.4-2.2,0.1-2.6,1.1l-5.4,13.2c-0.1,0.2-0.3,0.2-0.4,0l-5.4-13.1
			c-0.4-1.1-1.4-1.6-2.5-1.3c-1,0.3-1.5,1.6-1.2,2.6l7.1,17.2c0,0.1,0,0.1,0,0.2l-1.1,2.6c-1.2,2.9-2.1,4.5-4.7,4.5h-0.6
			c-1,0-1.8,0.7-1.9,1.7c0,1,0.7,1.7,1.7,1.8c0.5,0,0.8,0,0.9,0c4.3,0,6.2-1.9,8.2-6.5l9-21.5C171.3,23,170.8,21.8,169.8,21.4"/>
		<path id="Fill-12" class="st0" d="M16.3,15.6h12.2c1,0,1.9-0.8,1.9-1.9c0-1-0.8-1.9-1.9-1.9H16.3c-1,0-1.9,0.8-1.9,1.9
			C14.5,14.8,15.3,15.6,16.3,15.6"/>
		<path id="Fill-14" class="st0" d="M40.4,0H4.8C2.2,0,0,2.2,0,4.8v44c0,2.7,2.2,4.8,4.8,4.8h35.6c2.7,0,4.8-2.2,4.8-4.8v-44
			C45.3,2.2,43.1,0,40.4,0L40.4,0z M41.5,47.7c0,1.2-1,2.1-2.1,2.1H5.9c-1.2,0-2.1-1-2.1-2.1V5.9c0-1.2,1-2.1,2.1-2.1h33.4
			c1.2,0,2.1,1,2.1,2.1V47.7z"/>
		<path id="Fill-17" class="st0" d="M28.9,38H18.2v-4.9h6c1,0,1.9-0.8,1.9-1.9c0-1-0.8-1.9-1.9-1.9h-6v-4.5h10.2
			c1,0,1.9-0.8,1.9-1.9c0-1-0.8-1.9-1.9-1.9H16.3c-1,0-1.9,0.8-1.9,1.9v17c0,1,0.8,1.9,1.9,1.9h12.5c1,0,1.9-0.8,1.9-1.9
			C30.8,38.9,29.9,38,28.9,38"/>
	</g>
</g>
</svg>
