<?xml version="1.0" encoding="utf-8"?>
<!-- Generator: Adobe Illustrator 26.1.0, SVG Export Plug-In . SVG Version: 6.00 Build 0)  -->
<svg version="1.1" id="Layer_1" xmlns="http://www.w3.org/2000/svg" xmlns:xlink="http://www.w3.org/1999/xlink" x="0px" y="0px"
	 viewBox="0 0 97 36" style="enable-background:new 0 0 97 36;" xml:space="preserve">
<style type="text/css">
	.st0{fill:#FFFFFF;}
</style>
<path class="st0" d="M67.7,9.4l-6.5,14l-6.4-14H47l11.3,24.3h6L75.5,9.4H67.7z M49.6,21.4v-0.3c0-1.7-0.3-3.3-0.9-4.9
	c-0.6-1.5-1.6-3-2.7-4.1c-1.2-1.2-2.5-2.1-4.1-2.7c-4.7-2-10.1-0.9-13.7,2.7c-2.3,2.4-3.6,5.6-3.6,9c0,3.4,1.3,6.6,3.6,9
	c1.1,1.2,2.5,2.1,4.1,2.8c1.5,0.6,3.2,1,4.8,0.9c1.9,0,3.8-0.4,5.6-1.3v1.2h6.9L49.6,21.4C49.6,21.4,49.6,21.4,49.6,21.4z M41,25.1
	c-1,1.1-2.4,1.7-3.9,1.7c-1.5,0-2.9-0.6-3.9-1.7c-1-1.1-1.6-2.5-1.6-4c0-1.5,0.6-2.9,1.6-4c1-1.1,2.4-1.7,3.9-1.7
	c1.5,0,2.9,0.6,3.9,1.7c1,1.1,1.6,2.5,1.6,4C42.6,22.6,42,24.1,41,25.1z M20.4,12.8c-1-1.2-2.3-2.2-3.8-2.8c-1.4-0.6-3-0.9-4.6-0.9
	c-1.7,0-3.5,0.4-5,1.1V0H0v33.8h7.1V20.8c0.2-1.3,0.8-2.5,1.7-3.4c0.9-0.9,2.1-1.4,3.3-1.3c1.2-0.1,2.4,0.4,3.1,1.4
	c0.9,1.2,1.3,2.6,1.2,4.1v12.1h7V21.6C23.5,18.1,22.5,15.1,20.4,12.8 M96.4,18.6c-0.5-1.6-1.2-3-2.2-4.3c-1-1.3-2.3-2.3-3.7-3.1
	l-2.9,6.6c1.1,0.8,1.9,2,2.2,3.3c0.3,1.3,0.2,2.7-0.5,4c-0.6,1.3-1.8,2.3-3.2,2.7c-1.4,0.4-2.9,0.3-4.2-0.5
	c-1.3-0.7-2.3-1.9-2.7-3.3c-0.4-1.4-0.3-3,0.4-4.3c0.6-1.3,1.8-2.3,3.2-2.7c0.5-0.2,1.1-0.3,1.6-0.3c0.3,0,0.6,0,0.9,0.1l3.6-2.4
	L87.5,10c-2.7-0.7-5.6-0.5-8.2,0.7c-2.6,1.2-4.7,3.1-6,5.6c-1.5,3-1.8,6.5-0.8,9.7c1,3.2,3.2,5.9,6.1,7.5c0.3,0.2,0.6,0.3,0.9,0.5
	c1.5,0.7,3.2,1.1,4.9,1.1c1.3,0,2.5-0.2,3.8-0.6c1.6-0.5,3.1-1.2,4.3-2.3c1.3-1.1,2.3-2.4,3.1-3.9C97.1,25.3,97.4,21.8,96.4,18.6"/>
</svg>
