<?xml version="1.0" encoding="utf-8"?>
<!-- Generator: Adobe Illustrator 26.1.0, SVG Export Plug-In . SVG Version: 6.00 Build 0)  -->
<svg version="1.1" id="Layer_1" xmlns="http://www.w3.org/2000/svg" xmlns:xlink="http://www.w3.org/1999/xlink" x="0px" y="0px"
	 viewBox="0 0 2719 600" style="enable-background:new 0 0 2719 600;" xml:space="preserve">
<style type="text/css">
	.st0{fill:#FFFFFF;}
</style>
<path class="st0" d="M2588.8,299.2c0-12.9,13.8-19.8,28.9-19.8c25.4,0,44.4,14.6,47.8,37h50c-4.7-46.1-44-78.4-97-78.4
	c-47,0-83.2,24.5-83.2,65.9c0,46.1,44,58.1,80.6,67.6c26.3,6.9,48.7,12.5,48.7,28c0,12.5-14.2,21.1-34.1,21.1
	c-26.7,0-47-15.1-50-37.5h-50c4.7,46.1,45.3,78.8,100,78.8c49.6,0,88.4-26.3,88.4-67.6c0-44.8-44-56.8-80.6-66.3
	C2611.7,321.2,2588.8,315.1,2588.8,299.2z M2316.4,242.8h-54.8v214.9h54.8V344c0-29.3,25.9-59.9,69.8-53v-52.1
	c-33.2-3.9-56.9,14.6-69.8,42.6V242.8z M2133.1,347.4l-41.8-87.9l-40.5,87.9H2133.1z M2093.4,143.3l155.2,314.4h-62.9l-30.6-64.2
	h-125.9l-29.7,64.2h-61.2L2093.4,143.3z M1793.8,327.2h55.6c-10.3-52.1-55.2-88.7-108.6-88.7c-62.1,0-112.5,46.9-112.5,112
	c0,64.6,50.4,111.5,112.5,111.5c53.5,0,98.3-34.9,108.6-87h-55.6c-8.6,23.3-28.9,37.9-53,37.9c-32.3,0-58.2-25.4-58.2-61.6
	c0-37,25.9-62,58.2-62C1764.9,289.3,1785.2,303.9,1793.8,327.2z M1549.3,457.7h54.7V242.8h-54.7V457.7z M1541.5,180.8
	c0,19.4,16,35.3,34.9,35.3c19.4,0,35.3-15.9,35.3-35.3s-15.9-35.3-35.3-35.3C1557.5,145.5,1541.5,161.4,1541.5,180.8z M1374.4,269.5
	v-26.7h-54.8v214.9h54.8V327.6c0-25,19.4-44.8,44.8-44.8c26.3,0,44.8,18.9,44.8,46.9v127.9h54.8V325.5c0-50.4-28.9-87.4-80.2-87.4
	C1411,238.1,1387.3,250.1,1374.4,269.5z M1181.3,288.9c-33.2,0-59.5,25-59.5,62c0,36.2,26.3,61.6,59.5,61.6
	c33.2,0,59.5-25.4,59.5-61.6C1240.8,313.8,1214.5,288.9,1181.3,288.9z M1181.3,462c-62.9,0-113.8-46.9-113.8-111.5
	c0-65,50.9-112,113.8-112c62.9,0,113.8,46.9,113.8,112C1295.1,415.1,1244.3,462,1181.3,462z M995.8,242.8H941v214.9h54.8V344
	c0-29.3,25.9-59.9,69.8-53v-52.1c-33.2-3.9-56.9,14.6-69.8,42.6V242.8z M2458.9,179.9l-53.9,17.2v205c0,33.2,23.3,55.6,62.9,55.6
	h53.5V409h-37.9c-16.8,0-24.6-7.8-24.6-22v-97.8h62.5v-46.5h-62.5V179.9z M857.7,179.9l-53.9,17.2v205c0,33.2,23.3,55.6,62.9,55.6
	h53.5V409h-37.9c-16.8,0-24.6-7.8-24.6-22v-97.8h62.5v-46.5h-62.5V179.9z M730.6,327.2h55.6c-10.3-52.1-55.2-88.7-108.6-88.7
	c-62.1,0-112.5,46.9-112.5,112c0,64.6,50.4,111.5,112.5,111.5c53.5,0,98.3-34.9,108.6-87h-55.6c-8.6,23.3-28.9,37.9-53,37.9
	c-32.3,0-58.2-25.4-58.2-61.6c0-37,25.9-62,58.2-62C701.7,289.3,722,303.9,730.6,327.2z M487.1,328.9c-4.7-25.4-27.2-43.1-52.6-43.1
	c-25.4,0-46.6,16.8-53.9,43.1H487.1z M546.2,368.1h-166c7.3,27.1,31.5,45.2,60.8,45.2c16.8,0,32.3-6.5,41.4-19.8h60.8
	c-16.4,41.3-55.2,68.5-103,68.5c-64.7,0-117.3-47.4-117.3-112c0-65,50-112,111.6-112c53.5,0,112.1,39.2,112.1,121.9
	C546.6,362.5,546.2,365.1,546.2,368.1z M243.9,457.7h54.8V139l-54.8,17.2V457.7z M0,156.2h219v53H60.4v70.6h128.5v52.1H60.4v73.6
	H219v52.1H0V156.2z"/>
</svg>
