<?xml version="1.0" encoding="utf-8"?>
<!-- Generator: Adobe Illustrator 26.1.0, SVG Export Plug-In . SVG Version: 6.00 Build 0)  -->
<svg version="1.1" id="Layer_1" xmlns="http://www.w3.org/2000/svg" xmlns:xlink="http://www.w3.org/1999/xlink" x="0px" y="0px"
	 viewBox="0 0 100 19.4" style="enable-background:new 0 0 100 19.4;" xml:space="preserve">
<style type="text/css">
	.st0{fill:#FFFFFF;}
</style>
<path class="st0" d="M2.3,0.2C2,0.1,1.7,0,1.3,0c-0.4,0-0.7,0.1-1,0.2C0.1,0.4,0,0.6,0,0.9v17.6c0,0.2,0.1,0.4,0.4,0.6
	c0.3,0.2,0.6,0.3,0.9,0.3c0.3,0,0.7-0.1,0.9-0.3c0.3-0.2,0.4-0.4,0.4-0.6V0.9C2.7,0.6,2.5,0.4,2.3,0.2 M4.5,9.5
	c-0.2,0.2-0.2,0.4-0.2,0.7c0,0.3,0.2,0.6,0.4,0.9c0.2,0.3,0.5,0.5,0.9,0.5c0.3,0.1,0.6,0,0.7-0.1l1.4-0.9v7.9c0,0.2,0.1,0.4,0.4,0.6
	c0.2,0.2,0.6,0.3,0.9,0.3c0.4,0,0.7-0.1,1-0.3c0.3-0.2,0.4-0.4,0.4-0.6V7.9c0-0.3-0.1-0.5-0.4-0.6C9.7,7.1,9.4,7,9,7
	S8.3,7.1,8.1,7.2L4.5,9.5z M15.1,15.7c0,0.5,0.2,1,0.5,1.2c0.3,0.3,0.7,0.4,1.2,0.4c0.6,0,1.3-0.3,1.8-0.8c0.6-0.5,0.9-1.1,0.9-1.7
	v-0.9h-0.6c-0.7,0-1.4,0-1.8,0.1c-0.5,0.1-0.9,0.2-1.3,0.5C15.2,14.8,15.1,15.2,15.1,15.7z M12.4,16c0-1.4,0.5-2.3,1.5-2.8
	c1-0.5,2.5-0.8,4.4-0.8h1.1v-0.5c0-0.8-0.2-1.4-0.6-2c-0.4-0.6-1-0.8-1.9-0.8c-0.7,0-1.4,0.1-1.9,0.4c-0.5,0.3-0.9,0.4-0.9,0.4
	c-0.3,0-0.5-0.1-0.7-0.4c-0.2-0.3-0.3-0.6-0.3-0.9c0-0.4,0.4-0.8,1.2-1.1C15.2,7.1,16,7,17,7c1.7,0,3,0.5,3.9,1.4
	c0.8,0.9,1.3,2.1,1.3,3.5v6.4c0,0.2-0.1,0.5-0.4,0.6c-0.2,0.2-0.6,0.3-0.9,0.3c-0.3,0-0.6-0.1-0.9-0.3c-0.2-0.2-0.3-0.4-0.3-0.6
	v-0.9c-1.1,1.3-2.4,2-3.8,2c-1,0-1.8-0.3-2.4-0.9C12.7,18,12.4,17.1,12.4,16z M24.3,14.4v-2.3c0-1.5,0.4-2.7,1.3-3.7
	C26.5,7.5,27.8,7,29.5,7c1.1,0,2,0.2,2.8,0.6c0.7,0.4,1.1,0.8,1.1,1.3c0,0.3-0.1,0.6-0.3,0.9c-0.2,0.3-0.5,0.4-0.7,0.4
	c-0.1,0-0.4-0.1-0.9-0.4c-0.5-0.2-1.1-0.4-1.7-0.4c-1.8,0-2.8,0.9-2.8,2.7v2.3c0,1.8,0.9,2.7,2.8,2.7c0.6,0,1.2-0.1,1.7-0.4
	c0.5-0.3,0.8-0.4,0.9-0.4c0.3,0,0.6,0.1,0.8,0.4c0.2,0.3,0.3,0.6,0.3,0.9c0,0.5-0.4,0.9-1.1,1.3c-0.8,0.4-1.7,0.6-2.8,0.6
	c-1.7,0-3-0.5-3.9-1.4C24.8,17.1,24.3,15.9,24.3,14.4 M35.5,18.3V0.9c0-0.3,0.1-0.5,0.3-0.6C36.1,0.1,36.4,0,36.8,0
	c0.4,0,0.7,0.1,1,0.2c0.3,0.2,0.4,0.4,0.4,0.6v11.3l5.3-4.9c0.2-0.2,0.3-0.2,0.6-0.2c0.3,0,0.6,0.1,0.9,0.4c0.3,0.3,0.4,0.6,0.4,0.9
	c0,0.2-0.1,0.4-0.2,0.6l-3.3,2.9l4,5.7c0.1,0.2,0.2,0.3,0.2,0.5c0,0.3-0.2,0.6-0.5,0.9c-0.3,0.3-0.7,0.5-1,0.5
	c-0.3,0-0.5-0.1-0.7-0.4L40,13.5l-1.8,1.7v3.2c0,0.2-0.1,0.4-0.4,0.6c-0.3,0.2-0.6,0.3-1,0.3c-0.4,0-0.7-0.1-0.9-0.3
	C35.6,18.7,35.5,18.5,35.5,18.3 M49.5,12.2h4.2c0.4,0,0.6-0.1,0.7-0.2c0.1-0.1,0.2-0.3,0.2-0.6c0-0.7-0.2-1.2-0.7-1.7
	C53.5,9.3,52.9,9,52.1,9c-0.7,0-1.3,0.2-1.8,0.7c-0.5,0.5-0.7,1-0.7,1.7L49.5,12.2L49.5,12.2z M46.9,14.4V12c0-1.3,0.5-2.5,1.6-3.5
	c1-1,2.3-1.5,3.7-1.5c1.4,0,2.6,0.5,3.6,1.3c1,0.9,1.5,2,1.5,3.3c0,0.5-0.1,0.9-0.2,1.3c-0.1,0.3-0.3,0.5-0.6,0.7
	c-0.2,0.1-0.5,0.2-0.7,0.2c-0.2,0-0.5,0.1-0.9,0.1h-5.3v0.6c0,0.9,0.3,1.5,0.9,2c0.6,0.5,1.4,0.7,2.4,0.7c0.7,0,1.3-0.2,2-0.5
	c0.6-0.3,1-0.5,1.1-0.5c0.3,0,0.5,0.1,0.7,0.4c0.2,0.3,0.3,0.5,0.3,0.8c0,0.4-0.4,0.8-1.2,1.3c-0.8,0.4-1.8,0.6-3,0.6
	c-1.7,0-3.1-0.5-4.2-1.4C47.4,17.1,46.9,15.9,46.9,14.4z M59.3,18.3V8c0-0.3,0.1-0.5,0.4-0.6c0.2-0.2,0.6-0.2,0.9-0.2
	c0.3,0,0.6,0.1,0.9,0.2c0.2,0.2,0.3,0.4,0.3,0.6v1.1c0.3-0.6,0.7-1.1,1.3-1.5C63.7,7.2,64.3,7,65,7h0.8c0.3,0,0.5,0.1,0.7,0.3
	c0.2,0.2,0.3,0.5,0.3,0.8S66.7,8.8,66.5,9c-0.2,0.2-0.4,0.3-0.7,0.3H65c-0.8,0-1.5,0.3-2.1,1C62.3,11.1,62,12,62,13.1v5.2
	c0,0.2-0.1,0.4-0.4,0.6c-0.3,0.2-0.6,0.3-1,0.3s-0.7-0.1-0.9-0.3C59.4,18.7,59.3,18.5,59.3,18.3 M69.2,14.5c0,0.9,0.3,1.6,0.9,2.3
	c0.6,0.7,1.4,1,2.2,1c0.9,0,1.6-0.3,2.2-1c0.6-0.7,0.9-1.4,0.9-2.3v-2.8c0-0.8-0.3-1.6-0.9-2.2c-0.6-0.7-1.4-1-2.2-1s-1.6,0.3-2.2,1
	c-0.6,0.7-0.9,1.4-0.9,2.2L69.2,14.5L69.2,14.5z M67.6,14.5v-2.8c0-1.3,0.5-2.4,1.4-3.3C69.9,7.5,71,7,72.4,7c1.3,0,2.4,0.5,3.4,1.4
	c1,0.9,1.4,2.1,1.4,3.3v2.8c0,1.3-0.5,2.4-1.4,3.4c-1,1-2.1,1.5-3.4,1.5c-1.3,0-2.4-0.5-3.3-1.5C68,17,67.6,15.8,67.6,14.5z
	 M79.1,18.5V7.8c0-0.2,0.1-0.3,0.2-0.5c0.2-0.1,0.3-0.2,0.6-0.2c0.2,0,0.4,0.1,0.5,0.2c0.2,0.1,0.2,0.3,0.2,0.4V9
	C81,8.4,81.4,8,82,7.6C82.6,7.2,83.3,7,84.1,7c1.2,0,2.3,0.5,3.2,1.4c0.9,0.9,1.3,2.1,1.3,3.3v6.8c0,0.2-0.1,0.4-0.2,0.5
	c-0.2,0.1-0.4,0.2-0.6,0.2s-0.4-0.1-0.6-0.2c-0.2-0.1-0.2-0.3-0.2-0.5v-6.7c0-0.8-0.3-1.6-0.9-2.2c-0.6-0.7-1.4-1-2.2-1
	c-0.8,0-1.5,0.3-2.1,0.9c-0.6,0.6-0.9,1.4-0.9,2.3v6.7c0,0.2-0.1,0.3-0.3,0.5c-0.2,0.1-0.3,0.2-0.6,0.2c-0.2,0-0.4-0.1-0.6-0.2
	C79.2,18.9,79.1,18.7,79.1,18.5 M92.1,12.5h5.1c0.5,0,0.8-0.1,1-0.2c0.2-0.1,0.2-0.3,0.2-0.7c0-0.8-0.3-1.6-0.9-2.2
	c-0.6-0.6-1.3-1-2.2-1c-0.9,0-1.6,0.3-2.2,0.9s-0.9,1.3-0.9,2.2V12.5z M90.5,14.5v-2.8c0-1.3,0.5-2.4,1.4-3.3C92.8,7.5,94,7,95.3,7
	c1.3,0,2.4,0.5,3.3,1.3c0.9,0.9,1.4,2,1.4,3.3c0,0.5-0.1,0.9-0.2,1.1c-0.1,0.3-0.3,0.5-0.5,0.6c-0.2,0.1-0.5,0.2-0.7,0.2
	c-0.2,0-0.5,0.1-0.8,0.1h-5.7v0.9c0,1,0.3,1.8,1.1,2.4c0.7,0.6,1.6,0.9,2.8,0.9c0.6,0,1.1-0.1,1.5-0.3c0.3-0.1,0.7-0.3,1-0.5
	c0.2-0.2,0.4-0.3,0.5-0.3c0.2,0,0.3,0.1,0.5,0.3c0.1,0.2,0.2,0.3,0.2,0.5c0,0.3-0.4,0.7-1.1,1.1c-0.7,0.4-1.6,0.6-2.7,0.6
	c-1.6,0-2.9-0.5-3.9-1.3C91,17.2,90.5,16,90.5,14.5z"/>
</svg>
