<svg width="82" height="379" viewBox="0 0 82 379" fill="none" xmlns="http://www.w3.org/2000/svg">
<path d="M61.243 378.556C49.387 378.556 39.64 374.737 32.002 367.099C24.364 359.461 20.545 349.771 20.545 338.029V226.537C20.545 223.003 19.519 219.697 17.467 216.619L2.932 196.27C1.564 194.218 0.88 191.938 0.88 189.43C0.88 186.922 1.564 184.642 2.932 182.59L17.467 162.241C19.519 158.935 20.545 155.629 20.545 152.323V41.002C20.545 29.146 24.364 19.399 32.002 11.761C39.64 4.12298 49.387 0.303976 61.243 0.303976H81.592V24.415H62.269C57.481 24.415 53.32 26.125 49.786 29.545C46.366 32.965 44.656 37.183 44.656 42.199V152.323C44.656 161.101 42.091 169.081 36.961 176.263L27.556 189.43L36.961 202.597C42.091 209.779 44.656 217.759 44.656 226.537V337.003C44.656 341.791 46.366 345.895 49.786 349.315C53.32 352.735 57.481 354.445 62.269 354.445H81.592V378.556H61.243Z" fill="#40FFFF"/>
</svg>
