<svg width="626" height="88" viewBox="0 0 626 88" fill="none" xmlns="http://www.w3.org/2000/svg">
<path fill-rule="evenodd" clip-rule="evenodd" d="M38.6274 11.7654L11.7574 38.6355C9.41421 40.9786 9.41421 44.7776 11.7574 47.1208L38.6274 73.9908C40.9706 76.334 44.7696 76.334 47.1127 73.9908C47.6345 73.4691 48.4804 73.4691 49.0021 73.9908L54.1838 79.1724C54.7055 79.6942 54.7055 80.5401 54.1838 81.0619C47.9354 87.3103 37.8047 87.3103 31.5563 81.0619L4.68629 54.1918C-1.5621 47.9434 -1.5621 37.8128 4.68629 31.5644L31.5563 4.69435C37.8047 -1.55404 47.9354 -1.55404 54.1838 4.69435L59.8675 10.3781L65.0538 5.19181C71.3022 -1.05658 81.4328 -1.05658 87.6812 5.19181L114.551 32.0619C120.8 38.3103 120.8 48.4409 114.551 54.6893L87.6812 81.5593C81.4328 87.8077 71.3022 87.8077 65.0538 81.5593L59.5207 76.0262L59.5218 76.0252L52.1936 68.697L52.1926 68.6981L38.1838 54.6893C31.9354 48.4409 31.9354 38.3103 38.1838 32.0619L52.7965 17.4492L47.1127 11.7654C44.7696 9.42227 40.9706 9.42227 38.6274 11.7654ZM72.1249 12.2629L66.9386 17.4492L66.9394 17.45L59.8683 24.521L59.8675 24.5202L45.2548 39.1329C42.9117 41.4761 42.9117 45.2751 45.2548 47.6182L59.3701 61.7335L73.9828 47.1208C76.3259 44.7776 76.3259 40.9786 73.9828 38.6355L65.5252 30.1779C64.7441 29.3968 64.7441 28.1305 65.5252 27.3495L69.7678 23.1068C70.5489 22.3258 71.8152 22.3258 72.5962 23.1068L81.0538 31.5644C87.3022 37.8128 87.3022 47.9434 81.0538 54.1918L66.4411 68.8045L72.1249 74.4883C74.468 76.8314 78.267 76.8314 80.6102 74.4883L107.48 47.6182C109.823 45.2751 109.823 41.4761 107.48 39.1329L80.6102 12.2629C78.267 9.91973 74.468 9.91973 72.1249 12.2629Z" fill="url(#paint0_linear_729_11)"/>
<path d="M176.592 72.611C172.142 72.611 168.214 71.8144 164.808 70.2211C161.402 68.6279 158.737 66.348 156.814 63.3813C154.891 60.4146 153.93 56.8436 153.93 52.6683V50.3609H164.643V52.6683C164.643 56.1294 165.714 58.739 167.857 60.497C170 62.2001 172.911 63.0517 176.592 63.0517C180.328 63.0517 183.102 62.31 184.915 60.8267C186.783 59.3433 187.717 57.448 187.717 55.1405C187.717 53.5473 187.25 52.2563 186.316 51.2674C185.437 50.2785 184.119 49.4819 182.361 48.8776C180.658 48.2183 178.57 47.614 176.098 47.0646L174.202 46.6525C170.247 45.7735 166.841 44.6748 163.984 43.3562C161.182 41.9828 159.012 40.1973 157.474 37.9997C155.99 35.8022 155.249 32.9454 155.249 29.4293C155.249 25.9133 156.073 22.9191 157.721 20.4469C159.424 17.9197 161.786 15.9969 164.808 14.6784C167.884 13.3049 171.483 12.6182 175.603 12.6182C179.724 12.6182 183.377 13.3324 186.564 14.7608C189.805 16.1342 192.332 18.2219 194.145 21.0237C196.013 23.7707 196.947 27.2318 196.947 31.4071V33.8794H186.234V31.4071C186.234 29.2096 185.794 27.4516 184.915 26.133C184.091 24.7596 182.883 23.7707 181.289 23.1664C179.696 22.5071 177.801 22.1775 175.603 22.1775C172.307 22.1775 169.862 22.8092 168.269 24.0728C166.731 25.2815 165.962 26.9571 165.962 29.0997C165.962 30.5281 166.319 31.7368 167.033 32.7256C167.802 33.7145 168.928 34.5386 170.412 35.1979C171.895 35.8571 173.79 36.434 176.098 36.9284L177.993 37.3405C182.113 38.2195 185.684 39.3457 188.706 40.7192C191.783 42.0927 194.172 43.9056 195.876 46.1581C197.579 48.4106 198.43 51.2948 198.43 54.8109C198.43 58.327 197.524 61.431 195.711 64.123C193.953 66.76 191.426 68.8477 188.129 70.386C184.888 71.8693 181.042 72.611 176.592 72.611Z" fill="white"/>
<path d="M222.53 71.4573C219.838 71.4573 217.64 70.6332 215.937 68.985C214.289 67.2819 213.465 65.0295 213.465 62.2276V39.1534H203.247V30.583H213.465V17.8923H223.848V30.583H235.056V39.1534H223.848V60.4146C223.848 62.0628 224.618 62.8869 226.156 62.8869H234.067V71.4573H222.53Z" fill="white"/>
<path d="M257.146 72.611C254.234 72.611 251.624 72.1165 249.317 71.1276C247.01 70.0838 245.169 68.6005 243.796 66.6776C242.477 64.6998 241.818 62.31 241.818 59.5081C241.818 56.7063 242.477 54.3714 243.796 52.5035C245.169 50.5807 247.037 49.1522 249.399 48.2183C251.817 47.2294 254.564 46.735 257.64 46.735H268.848V44.4275C268.848 42.5047 268.243 40.9389 267.035 39.7303C265.826 38.4667 263.903 37.8349 261.266 37.8349C258.684 37.8349 256.761 38.4392 255.498 39.6479C254.234 40.8016 253.41 42.3124 253.025 44.1803L243.466 40.9664C244.125 38.8788 245.169 36.9834 246.598 35.2803C248.081 33.5223 250.031 32.1213 252.448 31.0775C254.921 29.9787 257.915 29.4293 261.431 29.4293C266.815 29.4293 271.073 30.7753 274.204 33.4673C277.336 36.1593 278.901 40.0599 278.901 45.1692V60.4146C278.901 62.0628 279.67 62.8869 281.209 62.8869H284.505V71.4573H277.583C275.55 71.4573 273.874 70.9628 272.556 69.9739C271.237 68.985 270.578 67.6665 270.578 66.0184V65.936H269.012C268.793 66.5952 268.298 67.4742 267.529 68.573C266.76 69.6168 265.551 70.5508 263.903 71.3749C262.255 72.1989 260.003 72.611 257.146 72.611ZM258.959 64.2054C261.87 64.2054 264.233 63.4088 266.046 61.8156C267.914 60.1674 268.848 57.9973 268.848 55.3054V54.4813H258.382C256.459 54.4813 254.948 54.8933 253.849 55.7174C252.751 56.5415 252.201 57.6952 252.201 59.1785C252.201 60.6619 252.778 61.8705 253.932 62.8045C255.086 63.7384 256.761 64.2054 258.959 64.2054Z" fill="white"/>
<path d="M292.097 71.4573V30.583H302.315V35.1979H303.799C304.403 33.5497 305.392 32.3411 306.765 31.5719C308.194 30.8028 309.842 30.4182 311.71 30.4182H316.654V39.6479H311.545C308.908 39.6479 306.738 40.3621 305.035 41.7905C303.332 43.164 302.48 45.3066 302.48 48.2183V71.4573H292.097Z" fill="white"/>
<path d="M340.428 71.4573C337.736 71.4573 335.538 70.6332 333.835 68.985C332.187 67.2819 331.363 65.0295 331.363 62.2276V39.1534H321.144V30.583H331.363V17.8923H341.746V30.583H352.954V39.1534H341.746V60.4146C341.746 62.0628 342.515 62.8869 344.054 62.8869H351.965V71.4573H340.428Z" fill="white"/>
<path d="M377.928 72.1165C374.741 72.1165 371.939 71.4023 369.522 69.9739C367.16 68.4906 365.319 66.4579 364.001 63.8758C362.682 61.2937 362.023 58.327 362.023 54.9757V30.583H372.406V54.1516C372.406 57.2282 373.148 59.5356 374.631 61.0739C376.17 62.6122 378.34 63.3813 381.142 63.3813C384.328 63.3813 386.8 62.3375 388.558 60.2498C390.316 58.1072 391.195 55.1405 391.195 51.3498V30.583H401.579V71.4573H391.36V66.1008H389.877C389.218 67.4742 387.981 68.8202 386.168 70.1387C384.356 71.4573 381.609 72.1165 377.928 72.1165Z" fill="white"/>
<path d="M413.133 87.9388V30.583H423.352V35.5275H424.835C425.769 33.9343 427.225 32.5334 429.203 31.3247C431.18 30.0611 434.01 29.4293 437.691 29.4293C440.987 29.4293 444.036 30.2534 446.838 31.9016C449.64 33.4948 451.892 35.8571 453.595 38.9886C455.298 42.1201 456.15 45.9109 456.15 50.3609V51.6794C456.15 56.1294 455.298 59.9202 453.595 63.0517C451.892 66.1832 449.64 68.573 446.838 70.2211C444.036 71.8144 440.987 72.611 437.691 72.611C435.218 72.611 433.131 72.3088 431.428 71.7045C429.78 71.1551 428.434 70.4409 427.39 69.5619C426.401 68.6279 425.604 67.694 425 66.76H423.517V87.9388H413.133ZM434.559 63.5461C437.801 63.5461 440.465 62.5298 442.553 60.497C444.695 58.4094 445.767 55.3878 445.767 51.4322V50.6081C445.767 46.6525 444.695 43.6584 442.553 41.6257C440.41 39.538 437.746 38.4942 434.559 38.4942C431.373 38.4942 428.708 39.538 426.566 41.6257C424.423 43.6584 423.352 46.6525 423.352 50.6081V51.4322C423.352 55.3878 424.423 58.4094 426.566 60.497C428.708 62.5298 431.373 63.5461 434.559 63.5461Z" fill="white"/>
<path d="M484.63 71.4573V61.898H492.212V23.3312H484.63V13.7719H508.364C516.11 13.7719 521.988 15.7497 525.999 19.7052C530.064 23.6059 532.097 29.4293 532.097 37.1757V48.0535C532.097 55.7998 530.064 61.6507 525.999 65.6063C521.988 69.507 516.11 71.4573 508.364 71.4573H484.63ZM503.09 61.5683H508.528C512.924 61.5683 516.137 60.4146 518.17 58.1072C520.203 55.7998 521.219 52.5584 521.219 48.3831V36.846C521.219 32.6158 520.203 29.3744 518.17 27.1219C516.137 24.8145 512.924 23.6608 508.528 23.6608H503.09V61.5683Z" fill="white"/>
<path d="M560.117 72.611C556.052 72.611 552.453 71.7594 549.322 70.0563C546.245 68.2983 543.828 65.8535 542.07 62.7221C540.367 59.5356 539.515 55.7998 539.515 51.5146V50.5257C539.515 46.2405 540.367 42.5322 542.07 39.4007C543.773 36.2142 546.163 33.7695 549.239 32.0664C552.316 30.3084 555.887 29.4293 559.952 29.4293C563.963 29.4293 567.451 30.3358 570.418 32.1488C573.385 33.9068 575.692 36.3791 577.34 39.5655C578.988 42.697 579.812 46.3504 579.812 50.5257V54.0692H550.063C550.173 56.8711 551.217 59.1511 553.195 60.9091C555.173 62.6671 557.59 63.5461 560.447 63.5461C563.358 63.5461 565.501 62.9143 566.874 61.6507C568.248 60.3872 569.292 58.9862 570.006 57.448L578.494 61.898C577.725 63.3264 576.599 64.8921 575.115 66.5952C573.687 68.2434 571.764 69.6718 569.347 70.8804C566.929 72.0341 563.853 72.611 560.117 72.611ZM550.146 46.3229H569.264C569.044 43.9606 568.083 42.0652 566.38 40.6368C564.732 39.2084 562.562 38.4942 559.87 38.4942C557.068 38.4942 554.843 39.2084 553.195 40.6368C551.547 42.0652 550.53 43.9606 550.146 46.3229Z" fill="white"/>
<path d="M596.498 71.4573L583.478 30.583H594.52L603.997 63.8758H605.48L614.957 30.583H626L612.98 71.4573H596.498Z" fill="white"/>
<defs>
<linearGradient id="paint0_linear_729_11" x1="-0.297187" y1="42.8959" x2="119.573" y2="43.6477" gradientUnits="userSpaceOnUse">
<stop stop-color="#58FCDE"/>
<stop offset="1" stop-color="#C4FFF4"/>
</linearGradient>
</defs>
</svg>
