<svg width="272" height="39" viewBox="0 0 272 39" fill="none" xmlns="http://www.w3.org/2000/svg">
<path d="M76.7371 31.5647C74.8021 31.5647 73.0942 31.2183 71.6131 30.5256C70.1321 29.8328 68.9735 28.8415 68.1374 27.5515C67.3013 26.2616 66.8833 24.7089 66.8833 22.8934V21.8901H71.5414V22.8934C71.5414 24.3983 72.0073 25.533 72.9389 26.2974C73.8705 27.038 75.1366 27.4082 76.7371 27.4082C78.3614 27.4082 79.5678 27.0857 80.3561 26.4408C81.1683 25.7958 81.5744 24.9717 81.5744 23.9684C81.5744 23.2756 81.3713 22.7142 80.9652 22.2843C80.583 21.8543 80.0097 21.5079 79.2453 21.2451C78.5048 20.9585 77.597 20.6957 76.5221 20.4568L75.6979 20.2777C73.978 19.8955 72.497 19.4177 71.2548 18.8444C70.0365 18.2472 69.0929 17.4709 68.4241 16.5153C67.7791 15.5598 67.4566 14.3177 67.4566 12.7888C67.4566 11.26 67.8149 9.95811 68.5316 8.88315C69.2721 7.78431 70.2993 6.94823 71.6131 6.37492C72.9508 5.77773 74.5155 5.47913 76.3071 5.47913C78.0987 5.47913 79.6872 5.78967 81.0727 6.41075C82.4821 7.00795 83.5809 7.91569 84.3692 9.13397C85.1814 10.3284 85.5875 11.8333 85.5875 13.6488V14.7237H80.9294V13.6488C80.9294 12.6933 80.7383 11.9289 80.3561 11.3556C79.9978 10.7584 79.4722 10.3284 78.7795 10.0656C78.0867 9.77895 77.2626 9.63562 76.3071 9.63562C74.8738 9.63562 73.8108 9.91033 73.118 10.4598C72.4492 10.9853 72.1148 11.7139 72.1148 12.6455C72.1148 13.2666 72.27 13.7921 72.5806 14.2221C72.915 14.6521 73.4047 15.0104 74.0497 15.2971C74.6946 15.5837 75.5188 15.8345 76.5221 16.0495L77.3462 16.2287C79.1378 16.6109 80.6905 17.1006 82.0043 17.6978C83.3421 18.295 84.3812 19.0833 85.1217 20.0627C85.8622 21.0421 86.2325 22.2962 86.2325 23.825C86.2325 25.3539 85.8384 26.7035 85.0501 27.874C84.2856 29.0207 83.1868 29.9284 81.7535 30.5973C80.3441 31.2422 78.672 31.5647 76.7371 31.5647Z" fill="#202124"/>
<path d="M96.7114 31.0631C95.5409 31.0631 94.5853 30.7048 93.8448 29.9881C93.1282 29.2476 92.7699 28.2682 92.7699 27.0499V17.017H88.3267V13.2905H92.7699V7.77236H97.2847V13.2905H102.158V17.017H97.2847V26.2616C97.2847 26.9782 97.6191 27.3366 98.288 27.3366H101.728V31.0631H96.7114Z" fill="#202124"/>
<path d="M111.763 31.5647C110.497 31.5647 109.362 31.3497 108.359 30.9197C107.355 30.4659 106.555 29.8209 105.958 28.9848C105.385 28.1249 105.098 27.0857 105.098 25.8675C105.098 24.6492 105.385 23.6339 105.958 22.8217C106.555 21.9857 107.367 21.3646 108.395 20.9585C109.446 20.5285 110.64 20.3135 111.978 20.3135H116.851V19.3102C116.851 18.4741 116.588 17.7933 116.063 17.2678C115.537 16.7184 114.701 16.4437 113.554 16.4437C112.432 16.4437 111.595 16.7064 111.046 17.232C110.497 17.7336 110.138 18.3905 109.971 19.2027L105.815 17.8053C106.101 16.8975 106.555 16.0734 107.176 15.3329C107.821 14.5685 108.669 13.9593 109.72 13.5055C110.795 13.0277 112.097 12.7888 113.626 12.7888C115.967 12.7888 117.818 13.3741 119.18 14.5446C120.542 15.7151 121.222 17.4111 121.222 19.6327V26.2616C121.222 26.9782 121.557 27.3366 122.226 27.3366H123.659V31.0631H120.649C119.765 31.0631 119.037 30.8481 118.463 30.4181C117.89 29.9881 117.603 29.4148 117.603 28.6982V28.6623H116.922C116.827 28.949 116.612 29.3312 116.278 29.809C115.943 30.2628 115.418 30.6689 114.701 31.0272C113.984 31.3856 113.005 31.5647 111.763 31.5647ZM112.551 27.9099C113.817 27.9099 114.844 27.5635 115.633 26.8707C116.445 26.1541 116.851 25.2105 116.851 24.04V23.6817H112.3C111.464 23.6817 110.807 23.8609 110.329 24.2192C109.852 24.5775 109.613 25.0792 109.613 25.7241C109.613 26.3691 109.864 26.8946 110.365 27.3007C110.867 27.7068 111.595 27.9099 112.551 27.9099Z" fill="#202124"/>
<path d="M126.96 31.0631V13.2905H131.403V15.2971H132.048C132.311 14.5804 132.741 14.0549 133.338 13.7205C133.959 13.386 134.676 13.2188 135.488 13.2188H137.638V17.232H135.416C134.27 17.232 133.326 17.5425 132.585 18.1636C131.845 18.7608 131.475 19.6924 131.475 20.9585V31.0631H126.96Z" fill="#202124"/>
<path d="M147.975 31.0631C146.804 31.0631 145.849 30.7048 145.108 29.9881C144.392 29.2476 144.033 28.2682 144.033 27.0499V17.017H139.59V13.2905H144.033V7.77236H148.548V13.2905H153.421V17.017H148.548V26.2616C148.548 26.9782 148.882 27.3366 149.551 27.3366H152.991V31.0631H147.975Z" fill="#202124"/>
<path d="M164.28 31.3497C162.895 31.3497 161.676 31.0392 160.625 30.4181C159.598 29.7731 158.798 28.8893 158.225 27.7665C157.651 26.6438 157.365 25.3539 157.365 23.8967V13.2905H161.879V23.5384C161.879 24.8761 162.202 25.8794 162.847 26.5483C163.516 27.2171 164.459 27.5515 165.678 27.5515C167.063 27.5515 168.138 27.0977 168.902 26.1899C169.667 25.2583 170.049 23.9684 170.049 22.3201V13.2905H174.564V31.0631H170.121V28.734H169.476C169.189 29.3312 168.652 29.9165 167.863 30.4898C167.075 31.0631 165.881 31.3497 164.28 31.3497Z" fill="#202124"/>
<path d="M179.588 38.2294V13.2905H184.031V15.4404H184.676C185.082 14.7476 185.715 14.1385 186.575 13.613C187.435 13.0635 188.665 12.7888 190.266 12.7888C191.699 12.7888 193.025 13.1471 194.243 13.8638C195.461 14.5565 196.441 15.5837 197.181 16.9453C197.922 18.3069 198.292 19.9552 198.292 21.8901V22.4634C198.292 24.3983 197.922 26.0466 197.181 27.4082C196.441 28.7698 195.461 29.809 194.243 30.5256C193.025 31.2183 191.699 31.5647 190.266 31.5647C189.191 31.5647 188.283 31.4333 187.543 31.1706C186.826 30.9317 186.241 30.6211 185.787 30.2389C185.357 29.8328 185.01 29.4268 184.748 29.0207H184.103V38.2294H179.588ZM188.904 27.6232C190.314 27.6232 191.472 27.1813 192.38 26.2974C193.312 25.3897 193.777 24.0759 193.777 22.3559V21.9976C193.777 20.2777 193.312 18.9758 192.38 18.0919C191.448 17.1842 190.29 16.7303 188.904 16.7303C187.519 16.7303 186.36 17.1842 185.429 18.0919C184.497 18.9758 184.031 20.2777 184.031 21.9976V22.3559C184.031 24.0759 184.497 25.3897 185.429 26.2974C186.36 27.1813 187.519 27.6232 188.904 27.6232Z" fill="#202124"/>
<path d="M205.089 31.5647C204.182 31.5647 203.417 31.2661 202.796 30.6689C202.199 30.0717 201.9 29.3073 201.9 28.3757C201.9 27.4679 202.199 26.7155 202.796 26.1183C203.417 25.5211 204.182 25.2225 205.089 25.2225C205.997 25.2225 206.749 25.5211 207.347 26.1183C207.944 26.7155 208.242 27.4799 208.242 28.4115C208.242 29.3431 207.944 30.1076 207.347 30.7048C206.749 31.2781 205.997 31.5647 205.089 31.5647Z" fill="#202124"/>
<path d="M219.861 31.5647C218.428 31.5647 217.09 31.2183 215.848 30.5256C214.606 29.809 213.614 28.7698 212.874 27.4082C212.133 26.0466 211.763 24.4103 211.763 22.4993V21.9259C211.763 20.0149 212.133 18.3786 212.874 17.017C213.614 15.6554 214.594 14.6282 215.812 13.9354C217.054 13.2188 218.404 12.8605 219.861 12.8605C220.96 12.8605 221.891 12.9919 222.656 13.2546C223.42 13.5174 224.029 13.8518 224.483 14.2579C224.961 14.664 225.331 15.106 225.594 15.5837H226.203V5.98077H230.288V31.0631H226.275V28.734H225.666C225.236 29.4506 224.579 30.1076 223.695 30.7048C222.811 31.2781 221.533 31.5647 219.861 31.5647ZM221.079 27.9815C222.56 27.9815 223.791 27.5038 224.77 26.5483C225.749 25.5689 226.239 24.1834 226.239 22.3918V22.0334C226.239 20.218 225.749 18.8325 224.77 17.8769C223.814 16.9214 222.584 16.4437 221.079 16.4437C219.598 16.4437 218.356 16.9214 217.353 17.8769C216.373 18.8325 215.884 20.218 215.884 22.0334V22.3918C215.884 24.1834 216.373 25.5689 217.353 26.5483C218.356 27.5038 219.598 27.9815 221.079 27.9815Z" fill="#202124"/>
<path d="M243.606 31.5647C241.838 31.5647 240.273 31.1945 238.912 30.4539C237.574 29.6895 236.523 28.6265 235.759 27.2649C235.018 25.8794 234.648 24.267 234.648 22.4276V21.9976C234.648 20.1344 235.018 18.5219 235.759 17.1603C236.499 15.7987 237.538 14.7476 238.876 14.0071C240.214 13.2427 241.754 12.8605 243.498 12.8605C245.218 12.8605 246.723 13.2427 248.013 14.0071C249.303 14.7476 250.306 15.7987 251.023 17.1603C251.74 18.5219 252.098 20.1105 252.098 21.9259V23.3951H238.804C238.852 24.7806 239.342 25.8913 240.273 26.7274C241.205 27.5635 242.352 27.9815 243.713 27.9815C245.051 27.9815 246.042 27.6949 246.687 27.1216C247.332 26.5244 247.822 25.8555 248.156 25.115L251.56 26.8707C251.226 27.5157 250.736 28.2085 250.091 28.949C249.47 29.6656 248.634 30.2867 247.583 30.8123C246.532 31.3139 245.206 31.5647 243.606 31.5647ZM238.84 20.2777H247.906C247.81 19.1072 247.356 18.1755 246.544 17.4828C245.756 16.79 244.728 16.4437 243.462 16.4437C242.149 16.4437 241.098 16.79 240.309 17.4828C239.521 18.1755 239.031 19.1072 238.84 20.2777Z" fill="#202124"/>
<path d="M259.674 31.0631L253.869 13.3621H258.241L262.612 28.0532H263.221L267.628 13.3621H272L266.195 31.0631H259.674Z" fill="#202124"/>
<path fill-rule="evenodd" clip-rule="evenodd" d="M16.7838 5.10863L5.10863 16.7838C4.09052 17.8019 4.09052 19.4526 5.10863 20.4707L16.7838 32.1459C17.8019 33.164 19.4526 33.164 20.4707 32.1459C20.6974 31.9192 21.065 31.9192 21.2917 32.1459L23.5431 34.3973C23.7698 34.624 23.7698 34.9916 23.5431 35.2183C20.8282 37.9332 16.4263 37.9332 13.7114 35.2183L2.03622 23.5431C-0.678739 20.8282 -0.678738 16.4263 2.03622 13.7114L13.7114 2.03622C16.4263 -0.678739 20.8282 -0.678739 23.5431 2.03622L26.0127 4.50584L28.2662 2.25237C30.9812 -0.462589 35.383 -0.462589 38.0979 2.25237L49.7731 13.9275C52.488 16.6425 52.488 21.0443 49.7731 23.7593L38.0979 35.4344C35.383 38.1494 30.9812 38.1494 28.2662 35.4344L25.862 33.0303L25.8625 33.0298L22.6784 29.8457L22.6779 29.8461L16.591 23.7593C13.8761 21.0443 13.8761 16.6425 16.591 13.9275L22.9403 7.57825L20.4707 5.10863C19.4526 4.09052 17.8019 4.09052 16.7838 5.10863ZM31.3386 5.32478L29.0851 7.57825L29.0855 7.57859L26.0131 10.651L26.0127 10.6507L19.6634 16.9999C18.6453 18.0181 18.6453 19.6687 19.6634 20.6868L25.7966 26.82L32.1459 20.4707C33.164 19.4526 33.164 17.8019 32.1459 16.7838L29.2707 13.9087C28.4897 13.1276 28.4897 11.8613 29.2707 11.0802L29.5147 10.8363C30.2958 10.0552 31.5621 10.0552 32.3431 10.8362L35.2183 13.7114C37.9332 16.4263 37.9332 20.8282 35.2183 23.5431L28.869 29.8924L31.3386 32.362C32.3567 33.3801 34.0074 33.3801 35.0255 32.362L46.7007 20.6868C47.7188 19.6687 47.7188 18.0181 46.7007 16.9999L35.0255 5.32478C34.0074 4.30667 32.3567 4.30667 31.3386 5.32478Z" fill="url(#paint0_linear_1_23)"/>
<defs>
<linearGradient id="paint0_linear_1_23" x1="-0.129129" y1="18.635" x2="51.9551" y2="18.9616" gradientUnits="userSpaceOnUse">
<stop stop-color="#4AFCDC"/>
<stop offset="1" stop-color="#2FEAC8"/>
</linearGradient>
</defs>
</svg>
