<svg width="2742" height="490" viewBox="0 0 2742 490" fill="none" xmlns="http://www.w3.org/2000/svg">
<path d="M690.613 377.235C672 377.235 655.713 373.338 641.753 365.543C627.793 357.749 616.916 346.872 609.122 332.912C601.327 318.952 597.43 302.665 597.43 284.052V208.668C597.43 190.055 601.327 173.768 609.122 159.808C616.916 145.848 627.793 134.971 641.753 127.176C655.713 119.382 672 115.485 690.613 115.485C709.226 115.485 725.513 119.382 739.473 127.176C753.433 134.971 764.31 145.848 772.105 159.808C779.899 173.768 783.796 190.055 783.796 208.668V284.052C783.796 302.665 779.899 318.952 772.105 332.912C764.31 346.872 753.433 357.749 739.473 365.543C725.513 373.338 709.226 377.235 690.613 377.235ZM690.613 332.214C698.989 332.214 706.551 330.236 713.298 326.281C720.045 322.326 725.397 316.974 729.352 310.227C733.307 303.48 735.285 295.918 735.285 287.542V204.829C735.285 196.453 733.307 188.891 729.352 182.144C725.397 175.397 720.045 170.045 713.298 166.09C706.551 162.135 698.989 160.157 690.613 160.157C682.237 160.157 674.675 162.135 667.928 166.09C661.181 170.045 655.829 175.397 651.874 182.144C647.919 188.891 645.941 196.453 645.941 204.829V287.542C645.941 295.918 647.919 303.48 651.874 310.227C655.829 316.974 661.181 322.326 667.928 326.281C674.675 330.236 682.237 332.214 690.613 332.214ZM811.656 372L879.013 276.723L813.052 183.54H868.892L906.584 239.38L943.578 183.54H999.418L933.457 276.723L1001.16 372H945.323L906.584 314.066L867.496 372H811.656ZM1029.25 372V120.72H1071.83L1154.89 287.542L1237.95 120.72H1280.53V372H1236.21V221.93L1163.27 372H1146.51L1073.57 221.93V372H1029.25ZM1333 372V120.72H1380.47V372H1333ZM1432.78 372V120.72H1514.1C1516.08 120.72 1520.15 120.778 1526.31 120.894C1532.48 121.011 1538.41 121.418 1544.11 122.116C1564.35 124.559 1581.51 131.597 1595.59 143.23C1609.67 154.864 1620.37 169.638 1627.7 187.553C1635.03 205.469 1638.69 225.071 1638.69 246.36C1638.69 267.649 1635.03 287.251 1627.7 305.166C1620.37 323.082 1609.67 337.856 1595.59 349.489C1581.51 361.123 1564.35 368.161 1544.11 370.604C1538.41 371.302 1532.48 371.709 1526.31 371.825C1520.15 371.942 1516.08 372 1514.1 372H1432.78ZM1480.94 327.328H1514.1C1517.24 327.328 1521.48 327.27 1526.84 327.154C1532.19 326.921 1537.02 326.397 1541.32 325.583C1552.25 323.373 1561.15 318.254 1568.02 310.227C1575 302.2 1580.12 292.544 1583.37 281.26C1586.75 269.976 1588.43 258.342 1588.43 246.36C1588.43 233.796 1586.69 221.872 1583.2 210.587C1579.83 199.303 1574.65 189.764 1567.67 181.969C1560.69 174.175 1551.91 169.231 1541.32 167.137C1537.02 166.206 1532.19 165.683 1526.84 165.566C1521.48 165.45 1517.24 165.392 1514.1 165.392H1480.94V327.328ZM1680.56 372V120.72H1728.72L1837.96 288.24V120.72H1886.12V372H1837.96L1728.72 204.48V372H1680.56ZM1938.3 372V120.72H1985.76V372H1938.3ZM2142.78 377.235C2126.96 377.235 2111.89 374.443 2097.58 368.859C2083.27 363.159 2070.59 354.783 2059.54 343.731C2048.61 332.679 2039.94 319.01 2033.54 302.723C2027.26 286.437 2024.12 267.649 2024.12 246.36C2024.12 218.556 2029.41 194.941 2040 175.513C2050.7 155.969 2065.01 141.078 2082.92 130.841C2100.96 120.604 2120.91 115.485 2142.78 115.485C2175.12 115.485 2200.54 122.988 2219.03 137.995C2237.53 153.002 2249.92 174.233 2256.2 201.688L2207.69 208.668C2203.15 194.01 2195.71 182.318 2185.36 173.593C2175.12 164.752 2161.97 160.273 2145.92 160.157C2129.98 159.924 2116.72 163.356 2106.13 170.452C2095.55 177.549 2087.58 187.612 2082.23 200.641C2076.99 213.67 2074.37 228.91 2074.37 246.36C2074.37 263.81 2076.99 278.933 2082.23 291.73C2087.58 304.527 2095.55 314.473 2106.13 321.569C2116.72 328.666 2129.98 332.33 2145.92 332.563C2156.74 332.796 2166.51 330.934 2175.23 326.979C2184.08 323.024 2191.52 316.8 2197.57 308.307C2203.62 299.815 2207.92 288.938 2210.48 275.676H2170.7V239.031H2261.09C2261.32 240.543 2261.5 243.219 2261.61 247.058C2261.73 250.897 2261.79 253.107 2261.79 253.689C2261.79 277.77 2256.9 299.117 2247.13 317.73C2237.36 336.344 2223.57 350.944 2205.77 361.53C2187.97 372 2166.97 377.235 2142.78 377.235ZM2296.76 372V120.72H2344.22V224.024H2456.6V120.72H2504.07V372H2456.6V268.347H2344.22V372H2296.76ZM2611.34 372V165.043H2532.12V120.72H2738.03V165.043H2658.8V372H2611.34Z" fill="#E7E7E7"/>
<path fill-rule="evenodd" clip-rule="evenodd" d="M78.3287 425.136C121.839 465.395 180.046 490 244 490C378.757 490 488 380.758 488 246C488 157.907 441.316 80.7185 371.339 37.823L78.3287 425.136ZM359.989 31.2786C352.685 27.3242 345.155 23.7319 337.425 20.5254L52.4718 397.188C57.6451 403.733 63.1467 410.006 68.9519 415.983L359.989 31.2786ZM300.523 8.58008C308.78 10.5383 316.874 12.9163 324.782 15.6899L44.3756 386.343C39.5337 379.468 35.0378 372.332 30.9136 364.96L300.523 8.58008ZM286.42 5.67432C272.643 3.25928 258.469 2 244 2C109.243 2 0 111.242 0 246C0 284.066 8.71692 320.096 24.2635 352.203L286.42 5.67432Z" fill="#FF7F56"/>
</svg>
