<svg width="2943" height="488" viewBox="0 0 2943 488" fill="none" xmlns="http://www.w3.org/2000/svg">
<path fill-rule="evenodd" clip-rule="evenodd" d="M615.476 340.712C622.489 350.068 631.248 357.678 641.753 363.543C655.713 371.338 671.999 375.235 690.613 375.235C709.226 375.235 725.513 371.338 739.473 363.543C753.433 355.749 764.31 344.872 772.104 330.912C779.899 316.952 783.796 300.665 783.796 282.052V206.668C783.796 188.055 779.899 171.768 772.104 157.808C769.554 153.24 766.674 149.003 763.464 145.095L732.314 186.271C734.294 191.382 735.285 196.902 735.285 202.829V285.542C735.285 293.918 733.307 301.48 729.352 308.227C725.396 314.974 720.045 320.326 713.298 324.281C706.55 328.236 698.989 330.214 690.613 330.214C682.237 330.214 674.675 328.236 667.928 324.281C661.18 320.326 655.829 314.974 651.874 308.227C650.023 305.07 648.605 301.735 647.621 298.221L615.476 340.712ZM725.177 174.157C721.869 170.149 717.91 166.793 713.298 164.09C706.55 160.135 698.989 158.157 690.613 158.157C682.237 158.157 674.675 160.135 667.928 164.09C661.18 168.045 655.829 173.397 651.874 180.144C647.918 186.891 645.941 194.453 645.941 202.829V278.895L608.065 328.96C600.975 315.441 597.43 299.804 597.43 282.052V206.668C597.43 188.055 601.327 171.768 609.121 157.808C616.916 143.848 627.793 132.971 641.753 125.176C655.713 117.382 671.999 113.485 690.613 113.485C709.226 113.485 725.513 117.382 739.473 125.176C744.886 128.199 749.835 131.684 754.321 135.633L725.177 174.157ZM901.698 274.723L834.341 370H890.181L929.269 312.066L968.008 370H1023.85L956.142 274.723L1022.1 181.54H966.263L929.269 237.38L891.577 181.54H835.737L901.698 274.723ZM1074.62 370V118.72H1117.2L1200.26 285.542L1283.32 118.72H1325.9V370H1281.58V219.93L1208.64 370H1191.88L1118.94 219.93V370H1074.62ZM1401.06 118.72V370H1448.52V118.72H1401.06ZM1523.52 370V118.72H1604.84C1606.81 118.72 1610.89 118.778 1617.05 118.894C1623.22 119.011 1629.15 119.418 1634.85 120.116C1655.09 122.559 1672.25 129.597 1686.33 141.23C1700.41 152.864 1711.11 167.638 1718.44 185.553C1725.77 203.469 1729.43 223.071 1729.43 244.36C1729.43 265.649 1725.77 285.251 1718.44 303.166C1711.11 321.082 1700.41 335.856 1686.33 347.489C1672.25 359.123 1655.09 366.161 1634.85 368.604C1629.15 369.302 1623.22 369.709 1617.05 369.825C1610.89 369.942 1606.81 370 1604.84 370H1523.52ZM1571.68 325.328H1604.84C1607.98 325.328 1612.22 325.27 1617.58 325.153C1622.93 324.921 1627.75 324.397 1632.06 323.583C1642.99 321.373 1651.89 316.254 1658.76 308.227C1665.74 300.2 1670.86 290.544 1674.11 279.26C1677.49 267.976 1679.17 256.342 1679.17 244.36C1679.17 231.796 1677.43 219.872 1673.94 208.587C1670.57 197.303 1665.39 187.764 1658.41 179.969C1651.43 172.175 1642.65 167.231 1632.06 165.137C1627.75 164.206 1622.93 163.683 1617.58 163.566C1612.22 163.45 1607.98 163.392 1604.84 163.392H1571.68V325.328ZM1842.14 118.72H1793.98V370H1842.14V202.48L1951.38 370H1999.54V118.72H1951.38V286.24L1842.14 118.72ZM2074.41 118.72H2121.87V370H2074.41V118.72ZM2256.38 366.859C2270.69 372.443 2285.75 375.235 2301.57 375.235C2325.77 375.235 2346.77 370 2364.57 359.53C2382.37 348.944 2396.15 334.344 2405.92 315.73C2415.7 297.117 2420.58 275.77 2420.58 251.689C2420.58 251.107 2420.52 248.897 2420.41 245.058C2420.29 241.219 2420.12 238.543 2419.88 237.031H2329.49V273.676H2369.28C2366.72 286.938 2362.41 297.815 2356.37 306.307C2350.32 314.8 2342.87 321.024 2334.03 324.979C2325.3 328.934 2315.53 330.796 2304.71 330.563C2288.78 330.33 2275.51 326.666 2264.93 319.569C2254.34 312.473 2246.37 302.527 2241.02 289.73C2235.79 276.933 2233.17 261.81 2233.17 244.36C2233.17 226.91 2235.79 211.67 2241.02 198.641C2246.37 185.612 2254.34 175.549 2264.93 168.452C2275.51 161.356 2288.78 157.924 2304.71 158.157C2320.77 158.273 2333.91 162.752 2344.15 171.593C2354.5 180.318 2361.95 192.01 2366.49 206.668L2415 199.688C2408.72 172.233 2396.33 151.002 2377.83 135.995C2359.33 120.988 2333.91 113.485 2301.57 113.485C2279.7 113.485 2259.75 118.604 2241.72 128.841C2223.8 139.078 2209.49 153.969 2198.79 173.513C2188.21 192.941 2182.91 216.556 2182.91 244.36C2182.91 265.649 2186.05 284.437 2192.34 300.723C2198.73 317.01 2207.4 330.679 2218.34 341.731C2229.39 352.783 2242.07 361.159 2256.38 366.859ZM2478.24 118.72H2525.7V222.024H2638.08V118.72H2685.55V370H2638.08V266.347H2525.7V370H2478.24V118.72ZM2815.5 163.043V370H2862.97V163.043H2942.19V118.72H2736.28V163.043H2815.5Z" fill="#E6E6E6"/>
<path fill-rule="evenodd" clip-rule="evenodd" d="M244 488C378.757 488 488 378.757 488 244C488 155.908 441.316 78.7186 371.339 35.8229L244 204.145L244 488ZM231 221.329L231 487.66C172.176 484.572 118.872 460.65 78.3288 423.136L231 221.329ZM244 182.598L359.989 29.2784C352.685 25.3241 345.155 21.7317 337.425 18.5253L244 142.019V182.598ZM231 159.202V199.782L68.9519 413.983C63.1468 408.006 57.6451 401.733 52.4718 395.188L231 159.202ZM244 120.471L324.782 13.69C299.499 4.82218 272.313 0 244 0L244 120.471ZM231 0.340389L231 137.655L44.3756 384.343C16.4179 344.648 0 296.242 0 244C0 113.604 102.286 7.09731 231 0.340389Z" fill="#FF0000"/>
</svg>
