<svg width="82" height="379" viewBox="0 0 82 379" fill="none" xmlns="http://www.w3.org/2000/svg">
<path d="M20.757 0.443987C32.613 0.443988 42.36 4.26299 49.998 11.901C57.636 19.539 61.455 29.229 61.455 40.971L61.455 152.463C61.455 155.997 62.481 159.303 64.533 162.381L79.068 182.73C80.436 184.782 81.12 187.062 81.12 189.57C81.12 192.078 80.436 194.358 79.068 196.41L64.533 216.759C62.481 220.065 61.455 223.371 61.455 226.677L61.455 337.998C61.455 349.854 57.636 359.601 49.998 367.239C42.36 374.877 32.613 378.696 20.757 378.696L0.407999 378.696L0.408002 354.585L19.731 354.585C24.519 354.585 28.68 352.875 32.214 349.455C35.634 346.035 37.344 341.817 37.344 336.801L37.344 226.677C37.344 217.899 39.909 209.919 45.039 202.737L54.444 189.57L45.039 176.403C39.909 169.221 37.344 161.241 37.344 152.463L37.344 41.997C37.344 37.209 35.634 33.105 32.214 29.685C28.68 26.265 24.519 24.555 19.731 24.555L0.40803 24.555L0.408033 0.443985L20.757 0.443987Z" fill="#4040FF"/>
</svg>
