<?xml version="1.0" encoding="UTF-8"?>
<svg width="171px" height="54px" viewBox="0 0 171 54" version="1.1" xmlns="http://www.w3.org/2000/svg" xmlns:xlink="http://www.w3.org/1999/xlink">
    <!-- Generator: Sketch 63 (92445) - https://sketch.com -->
    <title>Logo</title>
    <desc>Created with Sketch.</desc>
    <g id="Home" stroke="none" stroke-width="1" fill="none" fill-rule="evenodd">
        <g id="Logo" transform="translate(-0.000300, -0.000200)">
            <path d="M78.4827,38.0279 L66.1757,38.0279 C66.0487,38.0279 65.9467,37.9249 65.9467,37.7989 L65.9467,29.1949 C65.9467,29.0689 66.0487,28.9659 66.1757,28.9659 L74.8247,28.9659 C75.8697,28.9659 76.7397,28.1389 76.7397,27.0949 C76.7397,26.0069 75.8697,25.1789 74.8247,25.1789 L66.1757,25.1789 C66.0487,25.1789 65.9467,25.0769 65.9467,24.9499 L65.9467,15.8399 C65.9467,15.7129 66.0477,15.6109 66.1757,15.6109 L77.9617,15.6109 C79.0047,15.6109 79.8757,14.7829 79.8757,13.6949 C79.8757,12.6499 79.0047,11.8229 77.9617,11.8229 L63.9447,11.8229 C62.8557,11.8229 61.8977,12.7809 61.8977,13.9129 L61.8977,39.7259 C61.8977,40.8569 62.8557,41.8149 63.9447,41.8149 L78.4827,41.8149 C79.5267,41.8149 80.3977,40.9869 80.3977,39.9429 C80.3977,38.8549 79.5267,38.0279 78.4827,38.0279" id="Fill-1" fill="#3F4450"></path>
            <path d="M95.1819,21.0518 C92.9609,21.0518 90.0449,22.0958 88.8269,24.5328 L88.8269,23.2718 C88.8269,22.1828 87.9549,21.2688 86.8239,21.2688 C85.7359,21.2688 84.8659,22.1828 84.8659,23.2718 L84.8659,40.0298 C84.8659,41.1178 85.7359,42.0328 86.8249,42.0328 C87.9549,42.0328 88.8269,41.1178 88.8269,40.0298 L88.8269,30.8448 C88.8269,26.5368 91.6989,24.9258 94.5719,24.9258 C97.3579,24.9258 99.0549,26.9278 99.0549,30.3228 L99.0549,40.0298 C99.0549,41.1178 99.9259,42.0328 101.0139,42.0328 C102.1469,42.0328 103.0159,41.1178 103.0159,40.0298 L103.0159,30.0618 C103.0159,24.3598 100.2319,21.0518 95.1819,21.0518" id="Fill-3" fill="#3F4450"></path>
            <path d="M124.5608,21.3555 C123.5168,21.0515 122.5588,21.5735 122.1228,22.6625 L116.6768,36.6125 C116.6008,36.8065 116.3268,36.8075 116.2498,36.6135 L110.7618,22.6625 C110.3278,21.5735 109.3698,21.0515 108.3248,21.3555 C107.2368,21.6165 106.7128,22.8795 107.0618,23.8375 L113.8518,40.1605 C114.3748,41.3355 115.2028,42.0325 116.3778,42.0325 L116.5948,42.0325 C117.7698,42.0325 118.5538,41.3355 119.0328,40.1605 L125.7798,23.8375 C126.1268,22.8795 125.6488,21.6165 124.5608,21.3555" id="Fill-5" fill="#3F4450"></path>
            <path d="M139.0823,21.0513 C133.2923,21.0513 128.4613,25.1423 128.4613,31.5853 C128.4613,38.0283 133.2923,42.2493 139.0823,42.2493 C144.8713,42.2493 149.7463,38.0283 149.7463,31.5853 C149.7463,25.1423 144.8713,21.0513 139.0823,21.0513 M139.0823,38.4193 C135.4263,38.4193 132.3793,35.7203 132.3793,31.5853 C132.3793,27.4943 135.4263,24.9263 139.0823,24.9263 C142.7383,24.9263 145.7843,27.4943 145.7843,31.5853 C145.7843,35.7203 142.7383,38.4193 139.0823,38.4193" id="Fill-7" fill="#3F4450"></path>
            <path d="M169.7874,21.399 C168.7864,21.007 167.6104,21.486 167.2194,22.487 L161.7724,35.687 C161.6944,35.876 161.4264,35.876 161.3484,35.688 L155.9454,22.619 C155.5094,21.531 154.5094,21.052 153.4214,21.356 C152.3764,21.661 151.8974,22.923 152.2444,23.923 L159.3474,41.117 C159.3714,41.174 159.3714,41.237 159.3474,41.294 L158.2534,43.904 C157.0354,46.777 156.1624,48.387 153.5514,48.387 L152.9424,48.387 C151.9844,48.344 151.1144,49.085 151.0704,50.086 C151.0264,51.043 151.8094,51.827 152.7664,51.913 C153.2464,51.958 153.5514,51.958 153.6404,51.958 C157.9044,51.958 159.8204,50.042 161.8644,45.427 L170.8334,23.968 C171.2674,22.966 170.8334,21.792 169.7874,21.399" id="Fill-9" fill="#3F4450"></path>
            <path d="M16.3465,15.6109 L28.4985,15.6109 C29.5435,15.6109 30.3925,14.7629 30.3925,13.7159 C30.3925,12.6709 29.5435,11.8219 28.4985,11.8219 L16.3465,11.8219 C15.3015,11.8219 14.4525,12.6709 14.4525,13.7159 C14.4525,14.7629 15.3015,15.6109 16.3465,15.6109" id="Fill-12" fill="#FA4338"></path>
            <path d="M40.449,-8.17124146e-14 L4.806,-8.17124146e-14 C2.152,-8.17124146e-14 5.1159077e-13,2.152 5.1159077e-13,4.806 L5.1159077e-13,48.844 C5.1159077e-13,51.499 2.152,53.651 4.806,53.651 L40.449,53.651 C43.103,53.651 45.255,51.499 45.255,48.844 L45.255,4.806 C45.255,2.152 43.103,-8.17124146e-14 40.449,-8.17124146e-14 L40.449,-8.17124146e-14 Z M41.467,47.738 C41.467,48.911 40.515,49.863 39.342,49.863 L5.914,49.863 C4.74,49.863 3.789,48.911 3.789,47.738 L3.789,5.913 C3.789,4.74 4.74,3.788 5.914,3.788 L39.342,3.788 C40.515,3.788 41.467,4.74 41.467,5.913 L41.467,47.738 Z" id="Fill-14" fill="#FA4338"></path>
            <path d="M28.8592,38.0406 L18.2412,38.0406 L18.2412,33.1666 L24.2672,33.1666 C25.3122,33.1666 26.1602,32.3196 26.1602,31.2726 C26.1602,30.2276 25.3122,29.3786 24.2672,29.3786 L18.2412,29.3786 L18.2412,24.8396 L28.4002,24.8396 C29.4462,24.8396 30.2942,23.9916 30.2942,22.9456 C30.2942,21.8996 29.4462,21.0526 28.4002,21.0526 L16.3472,21.0526 C15.3012,21.0526 14.4532,21.8996 14.4532,22.9456 L14.4532,39.9356 C14.4532,40.9796 15.3012,41.8286 16.3472,41.8286 L28.8592,41.8286 C29.9052,41.8286 30.7532,40.9796 30.7532,39.9356 C30.7532,38.8886 29.9052,38.0406 28.8592,38.0406" id="Fill-17" fill="#FA4338"></path>
        </g>
    </g>
</svg>