<?xml version="1.0" encoding="utf-8"?>
<svg viewBox="0.037 0 100 19.412" xmlns="http://www.w3.org/2000/svg">
  <path d="M 2.31 0.241 C 2.042 0.08 1.748 0 1.374 0 C 0.973 0 0.652 0.08 0.411 0.241 C 0.171 0.401 0.037 0.615 0.037 0.883 L 0.037 18.503 C 0.037 18.717 0.171 18.931 0.411 19.118 C 0.679 19.305 0.973 19.412 1.347 19.412 C 1.682 19.413 2.009 19.31 2.283 19.118 C 2.55 18.931 2.684 18.717 2.684 18.503 L 2.684 0.883 C 2.711 0.615 2.577 0.401 2.31 0.241 M 4.529 9.492 C 4.369 9.653 4.288 9.867 4.342 10.187 C 4.369 10.508 4.502 10.802 4.77 11.07 C 5.01 11.337 5.304 11.524 5.625 11.605 C 5.946 11.685 6.187 11.631 6.347 11.498 L 7.764 10.615 L 7.764 18.503 C 7.764 18.717 7.898 18.931 8.139 19.118 C 8.379 19.305 8.7 19.412 9.074 19.412 C 9.449 19.412 9.77 19.305 10.037 19.118 C 10.304 18.931 10.438 18.717 10.438 18.503 L 10.438 7.861 C 10.438 7.594 10.304 7.407 10.037 7.246 C 9.77 7.086 9.449 7.006 9.048 7.006 C 8.647 7.006 8.353 7.086 8.112 7.246 Z M 15.09 15.722 C 15.09 16.257 15.251 16.685 15.545 16.952 C 15.839 17.22 16.24 17.38 16.721 17.38 C 17.363 17.38 17.978 17.113 18.54 16.578 C 19.128 16.043 19.422 15.455 19.422 14.84 L 19.422 13.904 L 18.78 13.904 C 18.032 13.904 17.417 13.931 16.935 14.011 C 16.454 14.091 16.026 14.252 15.652 14.546 C 15.278 14.813 15.09 15.214 15.09 15.722 Z M 12.417 16.043 C 12.417 14.679 12.925 13.744 13.941 13.209 C 14.957 12.674 16.401 12.407 18.326 12.407 L 19.422 12.407 L 19.422 11.925 C 19.422 11.15 19.208 10.508 18.807 9.947 C 18.406 9.385 17.764 9.118 16.935 9.118 C 16.213 9.118 15.572 9.252 15.037 9.546 C 14.502 9.813 14.181 9.974 14.128 9.974 C 13.834 9.974 13.62 9.84 13.433 9.546 C 13.246 9.278 13.165 8.957 13.165 8.61 C 13.165 8.182 13.566 7.781 14.395 7.46 C 15.197 7.139 16.08 6.979 16.989 6.979 C 18.727 6.979 20.01 7.46 20.839 8.396 C 21.668 9.332 22.096 10.508 22.096 11.925 L 22.096 18.289 C 22.096 18.53 21.962 18.744 21.721 18.904 C 21.481 19.091 21.16 19.171 20.812 19.171 C 20.465 19.171 20.197 19.091 19.957 18.904 C 19.716 18.717 19.609 18.53 19.609 18.289 L 19.609 17.407 C 18.486 18.717 17.203 19.385 15.812 19.385 C 14.823 19.385 14.021 19.091 13.406 18.53 C 12.738 17.968 12.417 17.139 12.417 16.043 Z M 24.369 14.359 L 24.369 12.059 C 24.369 10.562 24.796 9.332 25.679 8.396 C 26.561 7.46 27.844 7.006 29.582 7.006 C 30.679 7.006 31.588 7.193 32.336 7.567 C 33.085 7.941 33.459 8.369 33.459 8.851 C 33.459 9.145 33.353 9.439 33.139 9.706 C 32.925 10 32.684 10.134 32.39 10.134 C 32.31 10.134 32.016 10 31.481 9.76 C 30.973 9.519 30.411 9.385 29.77 9.385 C 27.925 9.385 26.989 10.268 26.989 12.059 L 26.989 14.332 C 26.989 16.123 27.925 17.006 29.796 17.006 C 30.438 17.006 31 16.872 31.534 16.605 C 32.042 16.337 32.363 16.203 32.443 16.203 C 32.791 16.203 33.058 16.337 33.272 16.605 C 33.486 16.872 33.593 17.166 33.593 17.46 C 33.593 17.941 33.219 18.369 32.443 18.77 C 31.668 19.171 30.732 19.385 29.609 19.385 C 27.871 19.385 26.561 18.931 25.679 17.995 C 24.823 17.113 24.369 15.883 24.369 14.359 M 35.545 18.316 L 35.545 0.856 C 35.545 0.589 35.652 0.401 35.893 0.241 C 36.133 0.08 36.427 0 36.828 0 C 37.203 0 37.55 0.08 37.791 0.241 C 38.058 0.401 38.192 0.615 38.192 0.856 L 38.192 12.166 L 43.459 7.3 C 43.62 7.139 43.807 7.059 44.021 7.059 C 44.315 7.059 44.582 7.193 44.877 7.46 C 45.171 7.728 45.304 8.022 45.304 8.316 C 45.304 8.53 45.224 8.717 45.09 8.877 L 41.828 11.792 L 45.786 17.54 C 45.893 17.701 45.946 17.834 45.946 17.995 C 45.946 18.289 45.786 18.61 45.438 18.904 C 45.09 19.198 44.77 19.359 44.449 19.359 C 44.155 19.359 43.941 19.225 43.754 18.984 L 40.037 13.476 L 38.192 15.161 L 38.192 18.343 C 38.192 18.556 38.058 18.77 37.791 18.957 C 37.524 19.145 37.203 19.225 36.828 19.225 C 36.454 19.225 36.16 19.145 35.919 18.957 C 35.679 18.744 35.545 18.53 35.545 18.316 M 49.582 12.193 L 53.78 12.193 C 54.155 12.193 54.395 12.139 54.529 12.032 C 54.663 11.925 54.716 11.738 54.716 11.417 C 54.716 10.749 54.476 10.187 53.994 9.706 C 53.513 9.252 52.898 9.011 52.176 9.011 C 51.481 9.011 50.866 9.225 50.358 9.679 C 49.85 10.134 49.609 10.695 49.609 11.364 L 49.609 12.193 Z M 46.935 14.359 L 46.935 11.952 C 46.935 10.615 47.443 9.466 48.486 8.476 C 49.502 7.514 50.759 7.006 52.203 7.006 C 53.593 7.006 54.77 7.46 55.759 8.316 C 56.748 9.198 57.23 10.294 57.23 11.658 C 57.23 12.166 57.176 12.594 57.042 12.915 C 56.935 13.236 56.748 13.449 56.481 13.583 C 56.24 13.717 56 13.797 55.786 13.824 C 55.572 13.851 55.278 13.877 54.93 13.877 L 49.609 13.877 L 49.609 14.466 C 49.609 15.321 49.903 15.99 50.518 16.498 C 51.133 17.006 51.909 17.246 52.898 17.246 C 53.593 17.246 54.235 17.086 54.85 16.765 C 55.465 16.444 55.839 16.284 55.973 16.284 C 56.267 16.284 56.508 16.417 56.695 16.685 C 56.909 16.952 56.989 17.22 56.989 17.487 C 56.989 17.915 56.588 18.316 55.786 18.77 C 54.984 19.198 53.994 19.412 52.818 19.412 C 51.107 19.412 49.689 18.957 48.593 18.022 C 47.47 17.086 46.935 15.856 46.935 14.359 Z M 59.342 18.316 L 59.342 8.022 C 59.342 7.754 59.476 7.567 59.716 7.407 C 59.957 7.246 60.278 7.166 60.652 7.166 C 60.973 7.166 61.267 7.246 61.508 7.407 C 61.748 7.567 61.855 7.781 61.855 8.048 L 61.855 9.171 C 62.149 8.583 62.577 8.075 63.165 7.647 C 63.754 7.22 64.369 7.006 65.064 7.006 L 65.866 7.006 C 66.133 7.006 66.374 7.113 66.561 7.353 C 66.775 7.594 66.855 7.861 66.855 8.182 C 66.855 8.503 66.748 8.797 66.561 9.038 C 66.347 9.278 66.133 9.385 65.866 9.385 L 65.064 9.385 C 64.262 9.385 63.54 9.733 62.925 10.428 C 62.31 11.123 62.016 12.006 62.016 13.102 L 62.016 18.289 C 62.016 18.503 61.882 18.717 61.615 18.904 C 61.347 19.091 61.026 19.171 60.652 19.171 C 60.278 19.171 59.984 19.091 59.716 18.904 C 59.449 18.744 59.342 18.53 59.342 18.316 M 69.235 14.546 C 69.235 15.401 69.529 16.177 70.144 16.845 C 70.759 17.514 71.508 17.834 72.363 17.834 C 73.246 17.834 73.994 17.514 74.609 16.845 C 75.224 16.177 75.545 15.428 75.545 14.546 L 75.545 11.792 C 75.545 10.963 75.224 10.214 74.609 9.572 C 73.967 8.904 73.246 8.583 72.39 8.583 C 71.534 8.583 70.786 8.904 70.171 9.572 C 69.556 10.241 69.262 10.963 69.262 11.792 L 69.262 14.546 Z M 67.604 14.546 L 67.604 11.792 C 67.604 10.508 68.085 9.385 69.021 8.449 C 69.957 7.514 71.08 7.032 72.39 7.032 C 73.673 7.032 74.823 7.487 75.759 8.423 C 76.721 9.359 77.203 10.482 77.203 11.765 L 77.203 14.519 C 77.203 15.776 76.721 16.899 75.759 17.888 C 74.796 18.851 73.673 19.359 72.39 19.359 C 71.133 19.359 70.01 18.877 69.048 17.888 C 68.085 16.952 67.604 15.829 67.604 14.546 Z M 79.181 18.53 L 79.181 7.808 C 79.181 7.621 79.262 7.487 79.395 7.353 C 79.556 7.246 79.743 7.193 79.984 7.193 C 80.197 7.193 80.358 7.246 80.518 7.38 C 80.679 7.514 80.732 7.647 80.732 7.808 L 80.732 8.984 C 81.026 8.423 81.454 7.968 82.042 7.594 C 82.631 7.22 83.326 7.032 84.101 7.032 C 85.304 7.032 86.374 7.487 87.256 8.423 C 88.139 9.359 88.593 10.482 88.593 11.765 L 88.593 18.53 C 88.593 18.744 88.513 18.904 88.353 19.011 C 88.192 19.118 87.978 19.198 87.764 19.198 C 87.55 19.198 87.39 19.145 87.203 19.011 C 87.042 18.904 86.962 18.744 86.962 18.53 L 86.962 11.792 C 86.962 10.963 86.641 10.214 86.026 9.572 C 85.411 8.904 84.663 8.583 83.807 8.583 C 83.005 8.583 82.31 8.877 81.721 9.466 C 81.107 10.054 80.812 10.829 80.812 11.792 L 80.812 18.53 C 80.812 18.69 80.732 18.851 80.545 18.984 C 80.385 19.118 80.197 19.198 79.957 19.198 C 79.716 19.198 79.529 19.118 79.369 18.984 C 79.262 18.877 79.181 18.717 79.181 18.53 M 92.149 12.46 L 97.203 12.46 C 97.711 12.46 98.032 12.407 98.219 12.3 C 98.379 12.193 98.459 11.952 98.459 11.605 C 98.459 10.776 98.165 10.027 97.55 9.385 C 96.962 8.744 96.213 8.423 95.304 8.423 C 94.422 8.423 93.673 8.717 93.058 9.332 C 92.443 9.947 92.149 10.669 92.149 11.498 Z M 90.518 14.546 L 90.518 11.711 C 90.518 10.428 91 9.332 91.935 8.423 C 92.871 7.514 94.021 7.032 95.331 7.032 C 96.615 7.032 97.711 7.487 98.647 8.343 C 99.582 9.225 100.037 10.321 100.037 11.658 C 100.037 12.139 99.983 12.514 99.877 12.808 C 99.77 13.102 99.582 13.289 99.342 13.423 C 99.101 13.53 98.887 13.61 98.673 13.663 C 98.459 13.69 98.192 13.717 97.844 13.717 L 92.149 13.717 L 92.149 14.653 C 92.149 15.642 92.497 16.444 93.219 17.059 C 93.941 17.647 94.85 17.968 95.973 17.968 C 96.534 17.968 97.042 17.888 97.47 17.701 C 97.819 17.571 98.151 17.4 98.459 17.193 C 98.7 17.032 98.861 16.925 98.994 16.925 C 99.181 16.925 99.342 17.006 99.475 17.193 C 99.609 17.38 99.689 17.54 99.689 17.701 C 99.689 18.048 99.315 18.423 98.593 18.797 C 97.871 19.171 96.962 19.359 95.893 19.359 C 94.288 19.359 93.005 18.904 91.989 18.022 C 91.026 17.166 90.518 15.99 90.518 14.546 Z M 90.518 14.546" stroke-width=".26738" style="fill: rgb(0, 0, 0);"/>
</svg>
