<svg width="400" height="54" viewBox="0 0 400 54" fill="none" xmlns="http://www.w3.org/2000/svg">
<g clip-path="url(#clip0)">
<path d="M97.9889 24.4655C97.9889 14.9714 90.9418 8.59055 80.4543 8.59055H70V40.5497H80.4543C90.7756 40.5222 97.9889 33.9155 97.9889 24.4655ZM76.3213 34.8687V14.2385H80.4211C87.2465 14.2385 91.5014 18.1508 91.5014 24.4544C91.5014 30.7581 87.0693 34.8687 80.4211 34.8687H76.3213ZM135.972 22.4101L131.59 25.7989C129.972 23.4461 128.1 22.3495 125.706 22.3495C121.917 22.3495 119.169 25.1873 119.169 29.094C119.169 33.0008 121.939 35.8936 125.706 35.8936C128.028 35.8936 129.895 34.7916 131.59 32.4883L135.972 35.833C133.861 39.5303 130.094 41.6463 125.612 41.6463C118.41 41.6463 112.748 36.1361 112.748 29.094C112.748 22.052 118.399 16.641 125.612 16.641C130.111 16.641 133.884 18.7403 135.972 22.4101ZM159.795 7.65382C159.794 6.928 160.009 6.21816 160.414 5.61407C160.818 5.00997 161.394 4.53874 162.068 4.25998C162.741 3.98121 163.483 3.90743 164.199 4.04796C164.915 4.18849 165.573 4.53702 166.09 5.04948C166.607 5.56194 166.959 6.21531 167.103 6.92697C167.246 7.63862 167.174 8.37661 166.896 9.04759C166.618 9.71857 166.145 10.2924 165.539 10.6966C164.933 11.1007 164.22 11.317 163.49 11.3181C163.006 11.3203 162.526 11.2275 162.077 11.0451C161.629 10.8627 161.221 10.5942 160.876 10.2549C160.532 9.91571 160.259 9.51237 160.071 9.06796C159.884 8.62355 159.786 8.14677 159.784 7.66484L159.795 7.65382ZM166.676 40.5222H160.332V16.641H166.654L166.676 40.5222ZM108.548 40.5222H102.205V16.6244H108.526L108.548 40.5222ZM101.679 7.65933C101.679 6.93281 101.896 6.22264 102.302 5.61879C102.708 5.01494 103.285 4.54459 103.96 4.26733C104.635 3.99006 105.378 3.91836 106.094 4.0613C106.811 4.20425 107.468 4.55541 107.983 5.07029C108.499 5.58518 108.849 6.24062 108.989 6.95357C109.13 7.66653 109.054 8.40492 108.773 9.07519C108.491 9.74546 108.015 10.3175 107.406 10.7187C106.797 11.12 106.082 11.3324 105.352 11.3291C104.373 11.3291 103.435 10.9425 102.743 10.2543C102.051 9.56605 101.662 8.63262 101.662 7.65933H101.679ZM141.773 32.1797V21.9087H138.244V16.6465H141.773V10.5357H148.094V16.6465H154.975V21.9087H148.094V31.5901C148.094 34.3452 149.496 35.5024 152.77 35.5024C153.429 35.5024 154.299 35.4363 155.302 35.3591L155.762 35.3206V40.5552C154.313 40.9203 152.824 41.1054 151.33 41.1063C145.08 41.1063 141.773 38.0206 141.773 32.1742V32.1797ZM183.745 16.101C176.543 16.101 170.881 21.5671 170.881 28.554C170.881 35.541 176.51 41.0567 183.701 41.0567C190.892 41.0567 196.665 35.5465 196.665 28.554C196.665 21.5616 190.981 16.101 183.745 16.101ZM183.745 35.2985C180.017 35.2985 177.307 32.4828 177.307 28.6036C177.307 24.7244 180.017 21.804 183.745 21.804C187.474 21.804 190.177 24.741 190.177 28.5981C190.177 32.4552 187.407 35.2985 183.745 35.2985ZM345.839 16.0789C338.637 16.0789 332.975 21.5506 332.975 28.532C332.975 35.5134 338.593 41.0346 345.795 41.0346C352.997 41.0346 358.759 35.5244 358.759 28.532C358.759 21.5395 353.075 16.0789 345.834 16.0789H345.839ZM345.839 35.282C342.105 35.282 339.396 32.4663 339.396 28.5816C339.396 24.6969 342.105 21.782 345.839 21.782C349.573 21.782 352.283 24.7079 352.283 28.5816C352.283 32.4552 349.512 35.282 345.828 35.282H345.839ZM207.091 26.5538V40.5222H200.765V16.6465H206.548V19.0599L206.814 18.7955C207.747 17.9085 208.847 17.2141 210.051 16.7526C211.255 16.291 212.538 16.0714 213.828 16.1065C219.285 16.1065 222.809 19.8644 222.809 25.6777V40.5222H216.532V26.5538C216.532 23.661 214.654 21.7159 211.861 21.7159C209.069 21.7159 207.091 23.705 207.091 26.5538ZM252.31 40.5167V16.6355H246.526V19.9801L246.249 19.5999C244.587 17.3408 241.873 16.0955 238.56 16.0955C231.817 16.0955 226.925 21.3522 226.925 28.5981C226.925 35.844 231.817 41.1008 238.56 41.1008C241.784 41.1008 244.482 39.8885 246.15 37.6899L246.427 37.3263V40.5167H252.31ZM239.789 35.3977C236.055 35.3977 233.346 32.5379 233.346 28.5981C233.346 24.6583 236.055 21.7544 239.789 21.7544C242.92 21.7544 246.083 23.8703 246.083 28.5981C246.083 33.3259 242.92 35.3977 239.789 35.3977ZM263.801 28.5981V40.5167H257.429V16.6134H263.247V19.8424L263.518 19.4842C264.287 18.4842 265.281 17.6772 266.42 17.128C267.559 16.5787 268.812 16.3025 270.078 16.3214C270.757 16.3088 271.434 16.3942 272.089 16.5748V22.1236H270.449C266.216 22.1236 263.801 24.4655 263.801 28.5981ZM279.424 49.895C278.034 49.8773 276.652 49.6923 275.307 49.344V44.1093L275.712 44.1424C276.587 44.225 277.374 44.2912 278 44.2912C279.917 44.2912 281.878 43.8834 283.202 40.9244L283.967 39.2714L274.67 16.652H281.363L287.407 32.8024L293.856 16.652H300.504L288.958 42.7263C286.704 47.724 283.85 49.8895 279.402 49.8895L279.424 49.895ZM304.759 36.7201C304.772 37.2267 304.684 37.7308 304.5 38.2035C304.317 38.6763 304.041 39.1084 303.69 39.4753C303.339 39.8422 302.918 40.1367 302.452 40.3418C301.986 40.547 301.484 40.6588 300.975 40.671H300.831C299.778 40.671 298.767 40.2547 298.022 39.5138C297.277 38.7729 296.859 37.768 296.859 36.7201C296.859 35.6723 297.277 34.6674 298.022 33.9265C298.767 33.1856 299.778 32.7693 300.831 32.7693C301.858 32.762 302.845 33.1598 303.578 33.8756C304.31 34.5915 304.727 35.5668 304.737 36.5879V36.7312L304.759 36.7201ZM330.46 21.8757L326.072 25.2644C324.454 22.9116 322.582 21.815 320.194 21.815C316.432 21.815 313.662 24.6528 313.662 28.5595C313.662 32.4663 316.432 35.3591 320.205 35.3591C322.521 35.3591 324.393 34.2571 326.083 31.9538L330.471 35.2985C328.355 38.9959 324.587 41.1118 320.105 41.1118C312.903 41.1118 307.241 35.6016 307.241 28.5595C307.241 21.5175 312.892 16.1065 320.105 16.1065C324.604 16.1065 328.355 18.1893 330.471 21.8536L330.46 21.8757ZM384.665 26.4601V40.5277H378.338V26.5869C378.338 23.6444 376.582 21.7434 373.861 21.7434C371.141 21.7434 369.235 23.6885 369.235 26.5869V40.5057H362.914V16.6244H368.698V18.9993L368.958 18.7293C369.844 17.8545 370.9 17.1687 372.061 16.7139C373.222 16.2592 374.465 16.0449 375.712 16.0844C378.859 16.0844 381.313 17.2636 382.803 19.4897L382.92 19.655L383.047 19.5008C384.054 18.3942 385.289 17.5162 386.667 16.9267C388.046 16.3372 389.536 16.0499 391.036 16.0844C396.609 16.0844 400.072 19.7542 400.072 25.6557V40.5332H393.762V26.5869C393.762 23.6444 392.006 21.7434 389.285 21.7434C386.565 21.7434 384.665 23.672 384.665 26.4381V26.4601Z" fill="white"/>
<path d="M24.5873 0.192951L0.67036 9.41582e-05C0.583779 -0.00136528 0.497757 0.0141538 0.417207 0.0457651C0.336657 0.0773764 0.263158 0.12446 0.200907 0.184328C0.138656 0.244196 0.0888723 0.315674 0.0544003 0.394681C0.0199283 0.473688 0.00144292 0.558675 0 0.644788V41.8115C0.0027589 41.9369 0.0378268 42.0595 0.101848 42.1675C0.165869 42.2756 0.256701 42.3655 0.365651 42.4287L18.2825 52.8154C18.4163 52.894 18.576 52.9167 18.7266 52.8785C18.8771 52.8403 19.0063 52.7443 19.0859 52.6115C19.1404 52.5197 19.1691 52.4151 19.169 52.3085V13.8307C19.1688 13.6984 19.1327 13.5687 19.0644 13.4552C18.9962 13.3417 18.8983 13.2487 18.7812 13.186L9.2687 7.98989C9.18692 7.94785 9.12314 7.87788 9.08907 7.79283C9.05501 7.70777 9.05294 7.61334 9.08326 7.5269C9.11358 7.44045 9.17425 7.36779 9.25412 7.32226C9.33398 7.27673 9.42768 7.2614 9.51801 7.27907L26.7202 10.216C26.8762 10.2455 27.0169 10.3283 27.1181 10.4501C27.2192 10.5718 27.2745 10.7248 27.2742 10.8827V45.5254C27.2742 45.7052 27.346 45.8775 27.4738 46.0046C27.6016 46.1317 27.775 46.2032 27.9557 46.2032H28.0332C40.7756 44.7815 49.4571 35.8605 49.6399 23.4846C49.8116 9.64295 39.5125 0.385808 24.5873 0.192951Z" fill="white"/>
</g>
<defs>
<clipPath id="clip0">
<rect width="400" height="54" fill="white"/>
</clipPath>
</defs>
</svg>
