<svg class="ComingSoon__StyledPrimaryLogo-sc-nrnruo-3 elpvvw" width="97" height="36"><path d="m67.722 9.432-6.507 14-6.38-14H46.97L58.26 33.755h6.034L75.495 9.432h-7.773ZM49.64 21.38v-.267c.03-1.67-.278-3.328-.903-4.875a12.396 12.396 0 0 0-2.733-4.13 12.51 12.51 0 0 0-4.067-2.739 12.465 12.465 0 0 0-13.669 2.74 12.962 12.962 0 0 0-3.634 9.004c0 3.362 1.303 6.592 3.634 9.005a12.065 12.065 0 0 0 4.053 2.78c1.527.637 3.167.953 4.82.927 1.934.02 3.845-.419 5.577-1.282v1.212h6.912v-12.39l.01.015Zm-8.644 3.739a5.316 5.316 0 0 1-3.857 1.665 5.295 5.295 0 0 1-3.858-1.665 5.734 5.734 0 0 1-1.629-4.006c0-1.498.585-2.936 1.63-4.006a5.317 5.317 0 0 1 3.857-1.665 5.295 5.295 0 0 1 3.857 1.665 5.718 5.718 0 0 1 1.635 4.006c0 1.5-.587 2.939-1.635 4.006ZM20.4 12.755a10.54 10.54 0 0 0-3.75-2.794 10.495 10.495 0 0 0-4.581-.892 11.229 11.229 0 0 0-5.02 1.132V0H0v33.755h7.05v-12.94a5.67 5.67 0 0 1 1.696-3.36 4.485 4.485 0 0 1 3.344-1.325 3.653 3.653 0 0 1 3.142 1.389 6.59 6.59 0 0 1 1.244 4.112v12.124h7.028V21.631c0-3.525-1.036-6.51-3.083-8.877M96.394 18.576a12.396 12.396 0 0 0-2.237-4.327 12.33 12.33 0 0 0-3.728-3.123l-2.892 6.553a5.716 5.716 0 0 1 2.227 3.309 5.738 5.738 0 0 1-.473 3.965 5.336 5.336 0 0 1-3.2 2.73 5.293 5.293 0 0 1-4.174-.454 5.715 5.715 0 0 1-2.712-3.34 5.744 5.744 0 0 1 .378-4.293 5.06 5.06 0 0 1 3.19-2.719 5.447 5.447 0 0 1 1.595-.256c.314 0 .628.033.936.097l3.61-2.404-1.41-4.364a12.526 12.526 0 0 0-8.199.696 12.603 12.603 0 0 0-6.017 5.639 12.98 12.98 0 0 0-.84 9.68 12.913 12.913 0 0 0 6.109 7.534c.303.166.611.32.92.454a11.885 11.885 0 0 0 4.875 1.068 12.592 12.592 0 0 0 3.764-.587 12.013 12.013 0 0 0 4.336-2.306 12.077 12.077 0 0 0 3.06-3.852 12.433 12.433 0 0 0 .845-9.678"></path></svg>
